<?xml version="1.0" standalone="yes"?>
<svg _ngcontent-pok-c53="" height="100%" width="100%" xmlns="http://www.w3.org/2000/svg" viewBox="0 0 1920 1080"><title _ngcontent-pok-c53="">Sans titre</title><desc _ngcontent-pok-c53="">Home made,Vibe,Flexing on collegues</desc><defs _ngcontent-pok-c53=""><filter _ngcontent-pok-c53="" id="previewFilter0"><feComposite _ngcontent-pok-c53="" in="SourceGraphic" in2="SourceGraphic" operator="in" result="composite"></feComposite></filter><filter _ngcontent-pok-c53="" filterUnits="userSpaceOnUse" height="120%" id="previewFilter1" width="120%" x="-10%" y="-10%"><feColorMatrix _ngcontent-pok-c53="" type="matrix" values="0 1 0 0 0
                    0 1 0 0 0
                    0 1 0 0 0
                    0 1 0 1 0 "></feColorMatrix></filter><filter _ngcontent-pok-c53="" color-interpolation-filters="sRGB" filterUnits="userSpaceOnUse" id="previewFilter2"><feColorMatrix _ngcontent-pok-c53="" type="luminanceToAlpha"></feColorMatrix><feComponentTransfer _ngcontent-pok-c53=""><feFuncA _ngcontent-pok-c53="" tableValues="0 .2 0.5 .8 1 .8 0.5 .20 0" type="table"></feFuncA></feComponentTransfer><feComposite _ngcontent-pok-c53="" in="SourceGraphic" operator="in"></feComposite><feColorMatrix _ngcontent-pok-c53="" result="sepia-clip" type="matrix" values="0.39 0.769 0.189 0  0
                0.349 0.686 0.168 0  0
                0.272 0.534 0.131 0  0
                  0  0 0 1  0"></feColorMatrix><feColorMatrix _ngcontent-pok-c53="" in="SourceGraphic" result="gscale" type="matrix" values="0.2126 0.7152 0.0722 0 0
                              0.2126 0.7152 0.0722 0 0
                              0.2126 0.7152 0.0722 0 0
                              0 0 0 1 0"></feColorMatrix><feComposite _ngcontent-pok-c53="" in="sepia-clip" in2="gscale" operator="over"></feComposite></filter><filter _ngcontent-pok-c53="" filterUnits="userSpaceOnUse" id="previewFilter3"><feFlood _ngcontent-pok-c53="" height="2" width="2" x="4" y="4"></feFlood><feComposite _ngcontent-pok-c53="" height="10" width="10"></feComposite><feTile _ngcontent-pok-c53="" result="flood"></feTile><feComposite _ngcontent-pok-c53="" in="SourceGraphic" in2="flood" operator="in"></feComposite><feMorphology _ngcontent-pok-c53="" operator="dilate" radius="5"></feMorphology></filter><filter _ngcontent-pok-c53="" filterUnits="userSpaceOnUse" id="previewFilter4"><feGaussianBlur _ngcontent-pok-c53="" edgeMode="none" height="100%" in="SourceGraphic" result="blur" stdDeviation="0 2" width="100%" x="0%" y="0%"></feGaussianBlur><feComposite _ngcontent-pok-c53="" in="blur" in2="blur" k1="2.3" k2="1.4" k3="-0.1" k4="-0.1" operator="arithmetic" result="composite1"></feComposite></filter><filter _ngcontent-pok-c53="" filterUnits="userSpaceOnUse" id="previewFilter5"><feTurbulence _ngcontent-pok-c53="" baseFrequency="0.034 0.047" numOctaves="2" result="turbulence1" seed="2" stitchTiles="stitch" type="turbulence"></feTurbulence><feTurbulence _ngcontent-pok-c53="" baseFrequency="1.999 2.001" numOctaves="2" result="turbulence2" seed="2" stitchTiles="stitch" type="turbulence"></feTurbulence><feComposite _ngcontent-pok-c53="" in="SourceGraphic" in2="turbulence1" operator="in" result="composite1"></feComposite><feComposite _ngcontent-pok-c53="" in="composite1" in2="SourceGraphic" operator="lighter"></feComposite><feComposite _ngcontent-pok-c53="" in="SourceGraphic" in2="turbulence2" operator="lighter"></feComposite></filter><filter _ngcontent-pok-c3="" filterUnits="userSpaceOnUse" id="brushTexture1"><feGaussianBlur _ngcontent-pok-c3="" in="SourceGraphic" stdDeviation="5"></feGaussianBlur></filter><filter _ngcontent-pok-c3="" filterUnits="userSpaceOnUse" id="brushTexture2"><feTurbulence _ngcontent-pok-c3="" baseFrequency="0.1 0.1" numOctaves="4" result="turbulence2" type="turbulence"></feTurbulence><feDisplacementMap _ngcontent-pok-c3="" in="SourceGraphic" in2="turbulence2" scale="15"></feDisplacementMap></filter><filter _ngcontent-pok-c3="" filterUnits="userSpaceOnUse" id="brushTexture3"><feDropShadow _ngcontent-pok-c3="" dx="10" dy="10" flood-color="#80868b" in="SourceGraphic" result="shadow3" stdDeviation="5"></feDropShadow><feGaussianBlur _ngcontent-pok-c3="" in="SourceGraphic" result="blur3" stdDeviation="15"></feGaussianBlur><feMerge _ngcontent-pok-c3=""><feMergeNode _ngcontent-pok-c3="" in="SourceGraphic"></feMergeNode><feMergeNode _ngcontent-pok-c3="" in="shadow3"></feMergeNode><feMergeNode _ngcontent-pok-c3="" in="blur3"></feMergeNode></feMerge></filter><filter _ngcontent-pok-c3="" filterUnits="userSpaceOnUse" id="brushTexture4"><feGaussianBlur _ngcontent-pok-c3="" in="SourceAlpha" result="blur4" stdDeviation="5"></feGaussianBlur><feSpecularLighting _ngcontent-pok-c3="" in="blur4" lighting-color="#e4e4e4" result="specular4" specularConstant=".17" specularExponent="50" surfaceScale="5"><fePointLight _ngcontent-pok-c3="" x="10000" y="10000" z="30000"></fePointLight></feSpecularLighting><feComposite _ngcontent-pok-c3="" in="specular4" in2="SourceAlpha" operator="in" result="specular4"></feComposite><feComposite _ngcontent-pok-c3="" in="SourceGraphic" in2="specular4" k2="1" k3="1" operator="arithmetic"></feComposite></filter><filter _ngcontent-pok-c3="" filterUnits="userSpaceOnUse" id="brushTexture5"><feTurbulence _ngcontent-pok-c3="" baseFrequency="0.1 0.1" numOctaves="4" result="turbulence5" type="turbulence"></feTurbulence><feDiffuseLighting _ngcontent-pok-c3="" diffuseConstant="0.05" in="turbulence5" result="diffuse5" surfaceScale="5"><feDistantLight _ngcontent-pok-c3="" azimuth="6" elevation="5"></feDistantLight></feDiffuseLighting><feComposite _ngcontent-pok-c3="" in="diffuse5" in2="SourceAlpha" operator="in" result="result5"></feComposite><feComposite _ngcontent-pok-c3="" in="SourceGraphic" in2="result5" k2="1" k3="1" operator="arithmetic"></feComposite></filter></defs><rect _ngcontent-pok-c53="" height="100%" width="100%" fill="rgba(255, 255, 255, 1)" filter="url(#previewFilter4)"></rect><g _ngcontent-pok-c53="" filter="url(#previewFilter4)"><path _ngcontent-pok-c3="" fill="none" stroke="rgba(0, 0, 0, 1)" shape-padding="2.5" stroke-width="5" stroke-linecap="round" stroke-linejoin="round" filter="url(#brushTexture2)" d="M110  365 L110 365L110 367L148 255L152 235L154 233L154 227L158 223L160 215L164 211L166 209L168 201L168 199L170 199L170 189L170 185L170 181L170 175L170 163L174 155L176 143L180 119L186 89L190 75L190 61L190 59L190 57L190 59L190 65L190 89L190 107L190 127L190 139L190 161L190 173L192 173L196 175L198 181L200 187L202 193L204 193L208 193L218 183L224 175L232 165L236 159L248 141L260 121L270 99L274 89L274 87L278 99L278 101L278 129L280 151L280 173L280 211L274 249L272 271L272 303L274 329L280 343L304 355L318 353L342 349"></path><path _ngcontent-pok-c3="" fill="none" stroke="rgba(0, 0, 0, 1)" shape-padding="2.5" stroke-width="5" stroke-linecap="round" stroke-linejoin="round" filter="url(#brushTexture2)" d="M420  211 L420 211L420 213L420 215L426 213L426 229L424 237L424 247L424 263L424 273L422 277L420 277L418 279L416 287L416 289L418 287L414 287L416 287L416 289L414 289"></path><path _ngcontent-pok-c3="" fill="none" stroke="rgba(0, 0, 0, 1)" shape-padding="2.5" stroke-width="5" stroke-linecap="round" stroke-linejoin="round" filter="url(#brushTexture2)" d="M412  293 L412 293L410 299L410 305L410 307L410 315L412 315"></path><path _ngcontent-pok-c3="" fill="none" stroke="rgba(0, 0, 0, 1)" shape-padding="2.5" stroke-width="5" stroke-linecap="round" stroke-linejoin="round" filter="url(#brushTexture2)" d="M414  347 L414 347L414 345L414 341L416 315L422 273L438 219L448 191L468 147L474 139L474 137"></path><path _ngcontent-pok-c3="" fill="none" stroke="rgba(0, 0, 0, 1)" shape-padding="2.5" stroke-width="5" stroke-linecap="round" stroke-linejoin="round" filter="url(#brushTexture2)" d="M516  55 L516 55L514 55L510 55L504 55L500 55L498 57L492 63L486 71L484 77L490 77L498 77L508 75L514 69L518 65L520 59L522 55L522 51L524 51"></path><path _ngcontent-pok-c3="" fill="none" stroke="rgba(0, 0, 0, 1)" shape-padding="2.5" stroke-width="5" stroke-linecap="round" stroke-linejoin="round" filter="url(#brushTexture2)" d="M614  25 L614 25L612 27L610 41L608 59L602 93L594 139L584 171L570 217L560 249L560 273L560 275L560 283L560 285L558 293L558 299L558 303L558 315L556 339L550 363L550 375L548 385L548 393"></path><path _ngcontent-pok-c3="" fill="none" stroke="rgba(0, 0, 0, 1)" shape-padding="2.5" stroke-width="5" stroke-linecap="round" stroke-linejoin="round" filter="url(#brushTexture2)" d="M754  31 L754 31L754 33L750 43L742 63L734 83L724 111L716 129L706 163L696 197L690 223L688 235L688 237L686 257L680 273L674 291L674 299L672 305L672 315L672 319L670 321L670 329L670 327L668 327L668 333L666 341L666 343L666 345"></path><path _ngcontent-pok-c3="" fill="none" stroke="rgba(0, 0, 0, 1)" shape-padding="2.5" stroke-width="5" stroke-linecap="round" stroke-linejoin="round" filter="url(#brushTexture2)" d="M716  171 L716 171L718 171L720 169L722 169L728 175L732 181L736 183L742 187L744 187L748 187L756 187L766 187L772 187L774 187L782 179L790 171L802 157L812 143L822 133L828 125L834 109L836 93L838 63L840 49L846 45"></path><path _ngcontent-pok-c3="" fill="none" stroke="rgba(0, 0, 0, 1)" shape-padding="2.5" stroke-width="5" stroke-linecap="round" stroke-linejoin="round" filter="url(#brushTexture2)" d="M710  179 L710 179L710 177L714 175L722 175L726 175L740 175L752 179L760 185L766 199L768 209L776 223L780 235L784 247L784 257L788 271L790 275L792 285L794 297L796 305L800 317L802 323L808 329L814 331L818 333L826 333L830 333L840 333L852 333L862 335L864 335L868 325"></path><path _ngcontent-pok-c3="" fill="none" stroke="rgba(0, 0, 0, 1)" shape-padding="2.5" stroke-width="5" stroke-linecap="round" stroke-linejoin="round" filter="url(#brushTexture2)" d="M1206  167 L1206 167L1204 167L1194 163L1186 159L1176 157L1172 157L1164 157L1152 159L1144 159L1132 163L1120 167L1112 171L1108 175L1102 183L1094 189L1090 197L1084 207L1082 223L1080 239L1080 251L1080 267L1080 285L1080 295L1080 313L1086 345L1086 351L1086 359L1088 363L1098 375L1104 375L1110 375L1120 375L1128 375L1134 373L1144 367L1154 361L1166 355L1172 351L1186 325L1190 303L1194 285L1200 267L1204 253L1206 241L1206 225L1204 209L1202 193L1202 159L1202 151L1202 145L1202 143L1198 145L1198 163L1198 173L1198 191L1198 221L1198 241L1198 251L1196 259L1196 267L1198 271L1198 275L1200 281L1206 291L1210 299L1216 307L1220 311L1220 313L1232 311L1246 309L1256 307L1264 303L1270 299L1270 297L1274 297L1282 279"></path><path _ngcontent-pok-c3="" fill="none" stroke="rgba(0, 0, 0, 1)" shape-padding="2.5" stroke-width="5" stroke-linecap="round" stroke-linejoin="round" filter="url(#brushTexture2)" d="M1316  187 L1316 187L1314 187L1310 193L1308 207L1308 221L1306 229L1306 245L1306 261L1306 273L1308 297L1308 319L1308 339L1308 347L1306 347L1306 353L1306 355L1308 363L1308 369L1308 373L1306 381L1306 383L1306 381L1308 375L1308 347L1308 307L1312 269L1314 245L1314 211L1316 203L1320 195L1324 185L1330 173L1334 167L1340 157L1350 145L1354 143L1356 143L1358 143L1362 143L1370 149L1382 159L1388 169L1392 185L1394 199L1394 213L1400 231L1402 241L1406 255L1406 267L1406 275L1406 293L1406 305L1406 313L1406 311L1408 313L1408 317L1414 325L1416 327L1422 327L1432 327L1444 327L1452 325L1466 323L1472 321L1476 319L1484 315L1498 297"></path><path _ngcontent-pok-c3="" fill="none" stroke="rgba(0, 0, 0, 1)" shape-padding="2.5" stroke-width="5" stroke-linecap="round" stroke-linejoin="round" filter="url(#brushTexture2)" d="M1632  195 L1632 195L1630 195L1628 195L1622 189L1616 187L1612 185L1606 183L1602 183L1598 183L1592 183L1584 185L1580 185L1578 185L1574 189L1570 191L1564 193L1556 201L1544 207L1534 217L1528 223L1522 229L1520 231L1518 235L1512 239L1510 245L1510 253L1510 257L1510 269L1514 285L1514 291L1514 299L1518 309L1518 313L1522 319L1524 323L1528 327L1530 327L1536 333L1542 335L1546 337L1556 337L1562 335L1568 333L1572 329L1578 323L1586 309L1594 303L1598 293L1600 283L1604 275L1608 259L1610 233L1612 217L1612 207L1610 191L1608 181L1608 175L1608 173L1608 167L1604 167L1602 161L1602 147L1600 137L1600 131L1598 111L1598 107L1598 103L1598 99L1598 93L1598 87L1598 77L1598 75L1598 77L1596 81L1594 89L1594 99L1594 109L1594 121L1596 135L1598 143L1600 157L1604 167L1606 177L1610 187L1610 193L1612 191L1610 191L1608 193L1608 197L1608 203L1608 207L1608 211L1606 211L1606 213L1608 219L1610 227L1614 233L1616 241L1626 259L1630 269L1632 275L1636 283L1640 297L1644 309L1646 315L1650 323L1654 333L1664 339L1674 341L1680 341L1686 343L1694 343L1712 337L1720 333L1728 331L1732 329L1738 325L1754 297"></path><path _ngcontent-pok-c3="" fill="none" stroke="rgba(0, 0, 0, 1)" shape-padding="2.5" stroke-width="5" stroke-linecap="round" stroke-linejoin="round" filter="url(#brushTexture2)" d="M130  495 L130 495L130 497L128 507L128 509L126 517L126 525L124 531L124 539L124 543L124 547L124 551L124 555L124 559L124 565L124 575L124 579L124 581L124 585L124 591L126 597L126 605L126 609L126 617L128 621L130 629L130 633L134 639L136 643L140 649L146 657L150 661L156 667L158 667L162 671L166 671L172 671L178 669L182 665L192 663L194 661L198 655L202 651L206 645L210 635L210 629L212 629L212 623L212 615L212 603L214 595L214 591L216 587L216 585L216 583L216 579L216 575L216 573L214 575L214 577L212 587L212 595L212 603L210 609L210 615L210 621L212 625L212 633L214 639L216 645L218 651L220 655L222 661L224 667L226 671L232 675L234 675L238 675L244 677L246 677L252 675L256 673L260 671L264 665L270 659L274 655L278 651L282 645L284 635L288 619L288 613L290 607L292 601L292 597L296 597L296 587L296 585L298 577L298 571L300 561L300 545L298 541L298 537L298 533L298 529L296 523L294 515L294 509L294 507L294 505L294 503L294 501L292 499"></path><path _ngcontent-pok-c3="" fill="none" stroke="rgba(0, 0, 0, 1)" shape-padding="2.5" stroke-width="5" stroke-linecap="round" stroke-linejoin="round" filter="url(#brushTexture2)" d="M388  531 L388 531L386 539L386 553L386 567L384 579L384 589L384 605L384 619L384 631L384 639L384 645L384 653L384 655L384 663L384 669L384 671L384 675L384 679L384 687L382 691L382 693L382 695L382 693"></path><path _ngcontent-pok-c3="" fill="none" stroke="rgba(0, 0, 0, 1)" shape-padding="2.5" stroke-width="5" stroke-linecap="round" stroke-linejoin="round" filter="url(#brushTexture2)" d="M394  457 L394 457L392 457L392 455L390 455L386 455L384 457L380 459L378 461L376 463L374 467L372 471L370 473L370 475L370 477L374 481L378 481L380 481L384 483L386 483L388 483L390 483L392 483L394 481L398 477L398 465L400 461L400 455L402 451"></path><path _ngcontent-pok-c3="" fill="none" stroke="rgba(0, 0, 0, 1)" shape-padding="2.5" stroke-width="5" stroke-linecap="round" stroke-linejoin="round" filter="url(#brushTexture2)" d="M458  539 L458 539L458 541L458 545L458 555L458 565L458 579L458 587L458 593L460 591L460 593L460 601L460 607L460 615L460 619L460 629L460 629L458 629L462 629L464 635L464 643L464 649L464 655L464 657L464 667L464 671L462 683L462 691L460 695L460 697L460 699L460 707L460 709L460 705L460 697L462 687L464 677L464 671L466 663L466 655L466 641L466 635L466 631L468 627L472 625L474 619L474 613L476 605L476 601L476 599L478 591L482 587L482 583L484 577L484 567L486 565L486 561L488 559L488 557L488 555L492 555L496 551L498 551L504 547L508 547L516 545L522 545L526 543L530 543L534 543L542 545L546 545L554 549L556 553L562 557L564 561L564 569L562 581L560 587L560 597L558 607L558 611L556 621L556 625L556 631L554 645L554 653L554 661L554 665L554 667L554 675L554 687L554 691L554 693L554 695L554 697L556 701L556 703L556 705L558 705L558 709L558 713L560 715"></path><path _ngcontent-pok-c3="" fill="none" stroke="rgba(0, 0, 0, 1)" shape-padding="2.5" stroke-width="5" stroke-linecap="round" stroke-linejoin="round" filter="url(#brushTexture2)" d="M642  619 L642 619L644 619L654 617L662 617L668 613L676 613L682 611L690 609L698 607L702 605L708 601L712 599L716 597L722 591L730 585L732 581L734 575L736 569L736 563L738 557L738 553L736 547L734 543L730 541L726 539L718 529L716 527L712 525L708 523L706 523L700 523L696 521L690 523L684 525L676 527L660 533L656 537L652 541L642 551L638 559L632 569L628 575L628 577L626 579L626 593L626 601L624 619L624 631L628 629L628 631L632 637L636 645L638 649L640 655L642 663L644 665L646 669L652 677L660 685L660 687L664 689L670 693L676 693L686 697L692 697L696 697L702 697L706 697L716 697L718 695L726 691L728 689L732 687L734 685L736 683"></path><path _ngcontent-pok-c3="" fill="none" stroke="rgba(0, 0, 0, 1)" shape-padding="2.5" stroke-width="5" stroke-linecap="round" stroke-linejoin="round" filter="url(#brushTexture2)" d="M1018  515 L1018 515L1018 517L1018 523L1018 533L1018 545L1016 559L1016 577L1014 585L1012 597L1012 609L1010 615L1010 625L1010 633L1008 635L1008 643L1006 657L1006 661L1006 665L1004 669L1004 671L1004 673L1004 677L1002 683L1002 687L1002 689L1000 693L1000 695L1000 697"></path><path _ngcontent-pok-c3="" fill="none" stroke="rgba(0, 0, 0, 1)" shape-padding="2.5" stroke-width="5" stroke-linecap="round" stroke-linejoin="round" filter="url(#brushTexture2)" d="M1034  445 L1034 445L1032 445L1030 443L1028 443L1026 443L1024 443L1020 443L1018 445L1016 445L1014 445L1014 447L1012 447L1012 451L1012 453L1012 457L1014 461L1018 463L1020 463L1022 465L1024 467L1026 469L1028 469L1032 471L1034 471L1036 471L1038 469L1038 467L1038 465L1038 463L1038 461L1036 463L1034 461L1034 459L1032 459"></path><path _ngcontent-pok-c3="" fill="none" stroke="rgba(0, 0, 0, 1)" shape-padding="2.5" stroke-width="5" stroke-linecap="round" stroke-linejoin="round" filter="url(#brushTexture2)" d="M1170  531 L1170 531L1170 533L1172 533L1172 531L1174 531L1172 531L1170 529L1166 529L1164 529L1158 529L1150 531L1144 531L1138 533L1132 533L1126 535L1118 537L1116 537L1108 539L1104 539L1096 543L1092 545L1086 547L1084 551L1082 553L1082 557L1082 563L1082 569L1082 575L1082 581L1080 585L1082 587L1086 587L1088 587L1090 589L1098 591L1108 595L1114 599L1122 603L1126 605L1132 613L1136 621L1140 637L1144 649L1144 655L1144 667L1144 675L1144 683L1144 693L1136 707L1130 709L1122 711L1098 705L1074 697L1068 695L1062 689L1062 687"></path><path _ngcontent-pok-c3="" fill="none" stroke="rgba(0, 0, 0, 1)" shape-padding="2.5" stroke-width="5" stroke-linecap="round" stroke-linejoin="round" filter="url(#brushTexture2)" d="M1550  553 L1550 553L1550 551L1548 551L1548 549L1546 549L1544 543L1542 541L1540 537L1538 537L1536 535L1534 533L1532 533L1530 531L1528 531L1526 531L1526 529L1524 527L1516 525L1512 525L1508 523L1502 523L1496 521L1486 521L1476 521L1464 523L1458 525L1448 529L1430 541L1424 549L1418 553L1412 563L1402 575L1398 581L1392 591L1388 603L1386 609L1384 615L1380 633L1380 647L1380 653L1380 659L1380 661L1382 657L1386 661L1392 667L1400 673L1410 675L1420 677L1428 677L1432 677L1438 677L1442 677L1444 679L1448 679L1454 679L1462 679L1468 679L1474 679L1482 677L1494 675L1494 673L1502 669L1508 663L1514 653L1518 647L1520 639L1522 629L1526 607L1528 599L1530 593L1530 589L1530 579L1532 571L1532 565L1534 557L1536 551L1536 549L1536 547L1536 545L1536 539L1536 531L1536 529L1538 527L1538 529L1536 535L1536 541L1536 551L1536 565L1536 583L1536 591L1536 601L1538 615L1538 621L1538 629L1542 641L1544 641L1546 641L1548 641L1544 643L1544 645L1546 651L1552 655L1554 655L1562 659L1564 659L1560 665L1560 667L1566 663L1576 651L1580 641L1586 627L1590 621L1602 609L1602 607"></path><path _ngcontent-pok-c3="" fill="none" stroke="rgba(253.40625, 0, 0, 1)" shape-padding="40" stroke-width="80" stroke-linecap="round" stroke-linejoin="round" filter="url(#brushTexture3)" d="M668  775 L668 775L670 783L670 791L672 797L674 811L674 817L674 823L674 827L674 833L674 839L676 849L678 857L678 859L678 863L678 865L680 875L680 883L680 891L680 897L680 905L680 913L680 919L680 925L680 941L680 953L678 961L678 967L678 977L676 991L676 995L676 999L676 1001L676 1007L678 1009L680 1009L680 1013L680 1017L682 1015L692 1007L696 1001L704 989L718 965L734 933L744 911L752 891L758 881L766 867L774 843L780 827L786 815L792 801L794 791L796 783L798 773L804 759L808 749L810 743L812 735L814 729"></path><path _ngcontent-pok-c3="" fill="none" stroke="rgba(253.40625, 109.14031559405939, 0, 1)" shape-padding="40" stroke-width="80" stroke-linecap="round" stroke-linejoin="round" filter="url(#brushTexture3)" d="M948  823 L948 823L948 835L946 845L946 853L944 861L940 869L938 877L938 883L938 893L936 899L936 903L936 913L934 923L934 937L934 947L934 953L934 961L934 965L934 971L934 981L934 991L932 999L932 1001L934 1009L934 1019L934 1025L934 1027L936 1025L940 1017"></path><path _ngcontent-pok-c3="" fill="none" stroke="rgba(253.40625, 109.14031559405939, 0, 1)" shape-padding="40" stroke-width="80" stroke-linecap="round" stroke-linejoin="round" filter="url(#brushTexture3)" d="M940  717 L940 717"></path><path _ngcontent-pok-c3="" fill="none" stroke="rgba(247.13381806930695, 253.40625, 0, 1)" shape-padding="40" stroke-width="80" stroke-linecap="round" stroke-linejoin="round" filter="url(#brushTexture3)" d="M1088  737 L1088 737L1088 739L1086 743L1086 747L1086 751L1086 761L1084 773L1082 787L1082 797L1082 809L1082 817L1082 829L1082 837L1084 847L1084 855L1084 859L1084 869L1084 877L1084 875L1084 877L1084 889L1082 895L1082 907L1082 919L1082 925L1084 933L1084 941L1084 943L1080 945L1080 949L1080 961L1080 967L1082 971L1082 977L1084 985L1088 989L1092 995L1098 1003L1108 1013L1112 1019L1118 1025L1120 1027L1126 1033L1136 1037L1144 1039L1156 1041L1162 1041L1170 1041L1186 1037L1200 1035L1208 1031L1214 1027L1216 1023L1220 1013L1226 1005L1230 997L1238 987L1242 979L1242 975L1242 949L1242 939L1242 933L1242 923L1240 913L1236 907L1226 895L1224 893L1226 893L1224 889L1216 883L1210 877L1198 867L1190 863L1186 861L1184 861L1178 859L1172 859L1164 859L1154 863L1140 867L1138 867L1132 867L1128 869L1126 869L1124 869L1122 871L1120 873L1116 873L1114 873"></path><path _ngcontent-pok-c3="" fill="none" stroke="rgba(141.75696163366334, 253.40625, 0, 1)" shape-padding="40" stroke-width="80" stroke-linecap="round" stroke-linejoin="round" filter="url(#brushTexture3)" d="M1398  919 L1398 919L1400 921L1406 923L1410 927L1416 927L1426 929L1432 931L1436 931L1440 931L1448 931L1456 931L1482 933L1490 933L1502 931L1508 929L1514 929L1520 925L1526 923L1532 921L1538 917L1540 911L1550 895L1550 889L1552 883L1552 875L1552 869L1552 857L1554 847L1548 833L1546 827L1542 825L1538 823L1534 819L1528 813L1526 811L1522 809L1518 805L1510 803L1506 801L1502 801L1496 799L1490 797L1480 797L1474 797L1470 795L1468 795L1460 797L1456 799L1446 803L1426 815L1418 819L1410 823L1400 831L1392 839L1386 845L1376 853L1370 859L1364 863L1356 869L1354 871L1354 869L1348 877L1342 887L1342 891L1340 901L1338 909L1336 917L1336 923L1336 929L1336 933L1336 939L1338 943L1344 955L1348 961L1350 967L1352 975L1352 981L1354 989L1356 995L1358 999L1358 1003L1360 1009L1362 1013L1362 1019L1366 1023L1368 1029L1372 1031L1376 1031L1374 1031L1374 1029L1384 1029L1390 1029L1398 1029L1410 1029L1418 1029L1430 1029L1436 1029L1442 1029L1452 1029L1456 1029L1466 1029L1476 1029L1480 1029L1488 1029L1494 1029L1492 1029L1490 1029L1492 1029L1500 1029L1506 1031L1516 1031L1524 1031L1530 1031L1534 1031L1544 1031L1568 1027"></path></g></svg>